<?xml version="1.0" encoding="utf-8"?>
<!-- Generator: Adobe Illustrator 27.2.0, SVG Export Plug-In . SVG Version: 6.00 Build 0)  -->
<svg version="1.1" id="Layer_1" xmlns="http://www.w3.org/2000/svg" xmlns:xlink="http://www.w3.org/1999/xlink" x="0px" y="0px"
	 width="415.3px" height="73.9px" viewBox="0 0 415.3 73.9" style="enable-background:new 0 0 415.3 73.9;" xml:space="preserve">
<style type="text/css">
	.st0{fill:#0085FF;}
	.st1{fill:#081D3F;}
</style>
<path class="st0" d="M391.4,65.4H278.8l-1.6,8.5h129.7l1.7-8.5H391.4z M218.3,65.4l-1.7,8.5H0.3l1.6-8.5H218.3z"/>
<g>
	<g id="XMLID_00000011743309234534500340000002135467556123910818_">
		<g>
			<path class="st1" d="M48.9,24.2c0,1.3-0.2,2.8-0.5,4.5l-3.2,16.6c-1,5-2.5,8.3-4.6,10c-2,1.6-5.6,2.4-10.6,2.4H3.4L14.6,0.2h13.4
				l-3.1,16.2h12.1c4.2,0,7.3,0.5,9.2,1.6C48,19.1,48.9,21.2,48.9,24.2z M35.2,28.4c0.1-0.8,0.2-1.3,0.2-1.5c0-0.7-0.6-1.1-1.7-1.1
				H22.9l-4.2,21.6h10.8c0.7,0,1.2-0.1,1.6-0.3c0.3-0.2,0.6-0.7,0.7-1.3L35.2,28.4z"/>
			<path class="st1" d="M91.7,23.5c0,1.2-0.1,2.5-0.4,4l-2.7,13.9H63.2l-0.8,4.4c-0.1,0.3-0.2,0.7-0.2,1.1c0,0.5,0.2,0.8,0.6,0.9
				c0.4,0.1,1.2,0.2,2.3,0.2h21.6l-1.9,9.7c-0.9,0-2.8,0-5.7,0c-2.9,0.1-5.3,0.1-7.3,0.1h-9.3c-4.5,0-7.8-0.6-9.9-1.7
				c-2-1.2-3-3.3-3-6.5c0-1.1,0.2-2.5,0.5-4.1l3.3-17.2c0.9-4.9,2.5-8.2,4.8-9.8c2.3-1.6,6-2.5,11-2.5h10.6c4.3,0,7.4,0.5,9.2,1.6
				C90.8,18.7,91.7,20.7,91.7,23.5z M78.9,26.8c0.1-0.5,0.2-0.8,0.2-0.9c0-0.7-0.6-1-1.8-1h-8.8c-0.8,0-1.4,0.1-1.7,0.3
				c-0.3,0.2-0.6,0.7-0.7,1.3l-1.3,6.7h13L78.9,26.8z"/>
			<path class="st1" d="M155,16.4l-1.7,9.1h-11.1l-4,19.7c0,0.1,0,0.3-0.1,0.5c-0.1,0.2-0.1,0.4-0.2,0.6c0,0.1,0,0.2,0,0.2
				c0,0.7,0.6,1.1,1.9,1.1h9.9l-2.1,10.2H137c-4.4,0.1-7.6-0.5-9.6-1.6c-1.9-1.2-2.9-3.2-2.9-6.3c0-1.2,0.2-2.7,0.5-4.4l3.9-19.9
				h-4.4h-1.8h-9.2l-4,19.7c0,0.1,0,0.3-0.1,0.5c-0.1,0.2-0.1,0.4-0.2,0.6c0,0.1,0,0.2,0,0.2c0,0.7,0.6,1.1,1.9,1.1h9.9l-2.1,10.2
				h-10.8c-4.4,0.1-7.6-0.5-9.6-1.6c-1.9-1.2-2.9-3.2-2.9-6.3c0-1.2,0.2-2.7,0.5-4.4l3.9-19.9h-6.3l1.7-9.1h6.3l2.2-11.2h13.3
				L115,16.4h9.3h1.8h4.5l2.1-11.2H146l-2.1,11.2H155z"/>
			<polygon class="st1" points="172.4,16.4 164.4,57.7 151.1,57.7 159.1,16.4 			"/>
			<polygon class="st1" points="175.5,0.2 173.8,9.7 160.4,9.7 162.2,0.2 			"/>
			<path class="st1" d="M214.4,24.2c0,1.3-0.2,2.8-0.5,4.5l-5.6,29h-13.4l5.8-29.8l0.2-1.2c0-0.4-0.2-0.7-0.6-0.8
				c-0.3-0.1-1.1-0.2-2.2-0.2h-8.3l-6.1,31.9h-13.4l8-41.3c0.8,0,2.6,0,5.3,0c2.8-0.1,5.1-0.1,7-0.1h11.8c4.2,0,7.2,0.6,9.2,1.7
				C213.4,19.1,214.4,21.2,214.4,24.2z"/>
			<path class="st1" d="M260.7,16.4l-8.8,45.2c-1,5-2.5,8.2-4.6,9.8c-2.1,1.6-5.6,2.5-10.6,2.5h-11.3l2-9.8h8.8
				c0.7,0,1.2-0.1,1.6-0.3c0.3-0.2,0.6-0.7,0.7-1.3l1.1-5.9h-11.4c-4.4,0-7.6-0.5-9.6-1.6c-2-1.2-3.1-3.3-3.1-6.5
				c0-1.3,0.2-2.7,0.5-4.2l2.8-14.2c1.1-5.6,2.7-9.2,4.8-11c2.2-1.8,5.9-2.6,11.2-2.6H260.7z M241.4,47l4.1-21.1h-10.7
				c-1.3,0-2,0.6-2.3,1.6l-3.4,17.7c-0.1,0.3-0.2,0.6-0.2,0.8c0,0.6,0.6,0.9,1.7,0.9H241.4z"/>
			<path class="st1" d="M303.8,24c0,1.5-0.2,3.1-0.5,4.6L300,45.2c-1,5-2.6,8.3-4.8,10c-2.1,1.7-5.7,2.5-10.6,2.5h-13l-3.2,16.2
				h-13.4l11.2-57.5c0.7,0,2.3,0,4.7,0c2.4-0.1,4.4-0.1,5.9-0.1h14.8c4.4,0,7.5,0.6,9.3,1.7C302.8,19.1,303.8,21.1,303.8,24z
				 M290.1,27.9c0.1-0.3,0.2-0.7,0.2-1.1c0-0.7-0.6-1.1-1.7-1.1h-10.7l-4.2,21.7h10.7c0.7,0,1.2-0.1,1.6-0.3
				c0.3-0.2,0.5-0.7,0.7-1.3L290.1,27.9z"/>
			<path class="st1" d="M335.9,16.4l-2,10.1h-9.9c-0.8,0-1.4,0.1-1.7,0.3c-0.3,0.2-0.5,0.6-0.7,1.3L316,57.7h-13.3l5.6-29.2
				c1-4.9,2.5-8.2,4.5-9.7c2-1.6,5.6-2.4,10.6-2.4H335.9z"/>
			<path class="st1" d="M375.4,23.8c0,1-0.2,2.5-0.6,4.5l-3.4,17.4c-1,5-2.5,8.3-4.6,10c-2,1.6-5.6,2.4-10.6,2.4h-12
				c-4.5,0-7.7-0.5-9.7-1.6c-2-1.2-3-3.3-3-6.5c0-1,0.1-2.4,0.4-4.2l3.5-17.4c0.9-5,2.5-8.2,4.8-9.9c2.3-1.6,5.9-2.5,11-2.5h12
				c4.3,0,7.4,0.5,9.3,1.6C374.4,18.7,375.4,20.8,375.4,23.8z M361.6,27.5c0.1-0.4,0.2-0.8,0.2-1.1c0-0.7-0.6-1-1.7-1h-8.8
				c-1.3,0-2.1,0.6-2.4,1.6l-3.6,18.6c-0.1,0.7-0.2,1-0.2,1.1c0,0.8,0.6,1.2,1.8,1.2h8.8c0.8,0,1.3-0.1,1.6-0.3
				c0.3-0.2,0.6-0.7,0.7-1.3L361.6,27.5z"/>
			<path class="st1" d="M415.2,16.4l-1.6,9.2h-19.1c-0.8,0-1.3,0.1-1.6,0.4c-0.3,0.2-0.6,0.7-0.7,1.4l-0.6,2.7
				c-0.1,0.7-0.1,1.1,0.2,1.4c0.3,0.2,0.9,0.3,1.9,0.3h5.7c6.1,0,10.1,0.7,12.1,2c2,1.3,2.6,4.1,1.7,8.2l-0.8,3.8
				c-0.9,4.8-2.4,8-4.4,9.6c-2,1.6-5.5,2.3-10.6,2.3h-22.9l1.8-9.9h21c0.8,0,1.4-0.1,1.7-0.3c0.3-0.2,0.6-0.7,0.7-1.4l0.7-3.3
				c0.1-0.7,0-1.2-0.3-1.4c-0.3-0.3-1.1-0.4-2.5-0.4h-5.8c-5.2,0-8.9-0.8-10.9-2.3c-2-1.5-2.5-4.5-1.7-8.7l0.4-2.2
				c0.9-4.7,2.4-7.8,4.4-9.2c2-1.4,5.5-2.1,10.4-2.1H415.2z"/>
		</g>
	</g>
</g>
</svg>
